<?xml version="1.0" encoding="UTF-8"?>
<svg version="1.1" xmlns="http://www.w3.org/2000/svg" width="200" height="200">
<path d="M0 0 C66 0 132 0 200 0 C200 66 200 132 200 200 C134 200 68 200 0 200 C0 134 0 68 0 0 Z " fill="#15161A" transform="translate(0,0)"/>
<path d="M0 0 C66 0 132 0 200 0 C200 5.61 200 11.22 200 17 C134 17 68 17 0 17 C0 11.39 0 5.78 0 0 Z " fill="#FFFFFF" transform="translate(0,0)"/>
<path d="M0 0 C66 0 132 0 200 0 C200 5.28 200 10.56 200 16 C134 16 68 16 0 16 C0 10.72 0 5.44 0 0 Z " fill="#FFFFFF" transform="translate(0,184)"/>
<path d="M0 0 C5.14380896 3.57020951 7.63430916 6.08577289 10 12 C5.38 14.64 0.76 17.28 -4 20 C-5.98567708 18.47005208 -7.97135417 16.94010417 -9.95703125 15.41015625 C-14.31694272 12.40073361 -18.89933275 12.52321805 -24 13 C-28.06468753 14.53554862 -30.25589056 16.96872226 -32.26953125 20.83984375 C-33.73890922 25.18511656 -33.67882839 29.4993678 -33 34 C-30.98181024 38.03637953 -28.82667596 40.64357323 -25 43 C-19.4245617 43.86194102 -14.50094794 43.80407925 -9.5 41.125 C-8.675 40.42375 -7.85 39.7225 -7 39 C-5.68 38.34 -4.36 37.68 -3 37 C0.96 39.97 4.92 42.94 9 46 C5.70199197 52.59601607 0.67521824 56.61495742 -6.125 59.4375 C-15.28526055 62.37234076 -24.98647953 62.37519188 -33.75390625 58.2578125 C-40.7695979 54.32902518 -45.35859584 50.22763552 -49 43 C-49.3196875 42.40703125 -49.639375 41.8140625 -49.96875 41.203125 C-53.52904306 33.48915669 -53.29085523 23.68475786 -50.5625 15.75 C-46.55767423 7.25024741 -40.01706265 0.24971152 -31.21875 -3.22265625 C-20.9416687 -5.70462127 -9.32849609 -5.24727905 0 0 Z " fill="#F9F9F9" transform="translate(72,72)"/>
<path d="M0 0 C16.5 0 33 0 50 0 C50 4.95 50 9.9 50 15 C39.44 15 28.88 15 18 15 C18 18.3 18 21.6 18 25 C27.9 25 37.8 25 48 25 C48 29.95 48 34.9 48 40 C38.43 40 28.86 40 19 40 C19 48.25 19 56.5 19 65 C12.73 65 6.46 65 0 65 C0 43.55 0 22.1 0 0 Z " fill="#F6F6F7" transform="translate(95,69)"/>
<path d="M0 0 C4.95 0 9.9 0 15 0 C15 21.45 15 42.9 15 65 C10.05 65 5.1 65 0 65 C0 43.55 0 22.1 0 0 Z " fill="#FAFAFB" transform="translate(160,69)"/>
</svg>
