<?xml version="1.0" encoding="UTF-8"?>
<svg version="1.1" xmlns="http://www.w3.org/2000/svg" width="247" height="247">
<path d="M0 0 C20.87287503 17.49881282 33.99058423 38.49407877 37.75 65.8125 C39.88826207 90.22432533 34.43332087 116.31416308 19 135.875 C17.69934142 137.38527928 16.38751223 138.88604102 15.0625 140.375 C14.49917969 141.06851563 13.93585938 141.76203125 13.35546875 142.4765625 C-0.49126781 159.27424292 -22.45539449 170.50823722 -43.9375 173.375 C-44.75347656 173.48457031 -45.56945312 173.59414062 -46.41015625 173.70703125 C-73.33000977 176.82757068 -98.95010925 169.37498121 -120.1640625 152.7109375 C-139.02804967 136.82267788 -151.59914874 114.91356181 -154.9375 90.375 C-156.0062163 75.75828538 -155.65153188 61.32468617 -150.9375 47.375 C-150.71787598 46.71967285 -150.49825195 46.0643457 -150.27197266 45.38916016 C-141.70410875 20.61936253 -123.6061132 1.6081487 -100.56640625 -10.37890625 C-68.3842169 -25.22363868 -28.29179178 -21.79415539 0 0 Z " fill="#702A8D" transform="translate(181.9375,45.625)"/>
<path d="M0 0 C1.05832031 0.53496094 2.11664063 1.06992187 3.20703125 1.62109375 C27.26370317 14.7687113 44.45989401 37.60938278 52.34814453 63.65185547 C59.8410807 90.64326373 56.69227674 119.88549108 43.28759766 144.50756836 C29.2822135 169.05405044 6.397481 186.86949914 -20.77978516 194.47827148 C-50.05140443 202.14400783 -79.20885296 197.27093446 -105.13916016 182.14648438 C-109.44509792 179.49354765 -113.23030256 176.35233808 -117 173 C-117.7425 172.39929688 -118.485 171.79859375 -119.25 171.1796875 C-136.89950859 156.53304669 -149.99901622 132.24879707 -152.78466797 109.46142578 C-154.21094312 93.15790414 -154.09047154 76.65758831 -149 61 C-148.68651611 60.02981934 -148.68651611 60.02981934 -148.36669922 59.04003906 C-143.0964387 43.36742913 -134.53556112 30.67391868 -123 19 C-122.35675781 18.28457031 -121.71351562 17.56914063 -121.05078125 16.83203125 C-90.91749928 -15.91585219 -37.9643277 -19.19428397 0 0 Z M-118 18 C-118.75925781 18.65613281 -119.51851562 19.31226562 -120.30078125 19.98828125 C-139.80827415 38.24479265 -149.3594163 64.50823769 -151.18359375 90.62890625 C-151.96046069 118.36762564 -140.89863144 143.57391627 -122.3359375 163.59375 C-102.79855506 183.71921419 -76.9756849 194.92360065 -48.9375 195.375 C-23.79883364 195.32948642 -1.07496437 186.22988494 18 170 C18.69867188 169.43539062 19.39734375 168.87078125 20.1171875 168.2890625 C38.78210313 152.81969663 50.36304654 127.88326423 53 104 C53.66203719 91.3692669 53.37502887 79.24301972 50 67 C49.67128906 65.783125 49.34257812 64.56625 49.00390625 63.3125 C44.83371439 49.45995957 37.76061148 36.70908079 28 26 C27.35272949 25.2891626 27.35272949 25.2891626 26.69238281 24.56396484 C7.60904085 3.88038439 -17.29971837 -7.36288831 -45.359375 -9.22265625 C-72.80097698 -9.94979547 -97.47567934 0.26234251 -118 18 Z " fill="#70298D" transform="translate(172,30)"/>
<path d="M0 0 C3.96 0 7.92 0 12 0 C12.01458252 0.86278564 12.02916504 1.72557129 12.04418945 2.61450195 C12.10527754 5.81849647 12.17943549 9.02184625 12.26245117 12.2253418 C12.29568549 13.61129377 12.32372226 14.99738061 12.34643555 16.38354492 C12.38000617 18.37706843 12.43388 20.37021741 12.48828125 22.36328125 C12.51446533 23.56251221 12.54064941 24.76174316 12.56762695 25.99731445 C12.7653261 28.96505097 12.7653261 28.96505097 14.31713867 30.88745117 C17.21316662 32.80203109 19.65090058 32.41129291 23 32 C25.94068602 29.81913362 26.88972896 28.61092918 27.54589844 24.97558594 C27.57731934 23.24743652 27.57731934 23.24743652 27.609375 21.484375 C27.64160156 20.23398438 27.67382812 18.98359375 27.70703125 17.6953125 C27.72121094 16.39335938 27.73539063 15.09140625 27.75 13.75 C27.77964844 12.43257812 27.80929688 11.11515625 27.83984375 9.7578125 C27.91055388 6.50514657 27.96324786 3.25319807 28 0 C31.63 0 35.26 0 39 0 C39.09940876 4.71388705 39.17172034 9.42715442 39.21972656 14.1418457 C39.23975347 15.74319091 39.26698354 17.3444638 39.30175781 18.94555664 C39.35067419 21.25685537 39.37305711 23.56718154 39.390625 25.87890625 C39.41127014 26.58648575 39.43191528 27.29406525 39.45318604 28.02308655 C39.45564115 33.55032144 38.03172123 36.55076884 35 41 C29.78833093 45.16019197 23.91598557 46.73797644 17.3203125 46.35546875 C11.11735416 45.40518389 6.93523953 42.8097372 3 38 C0.43285098 32.92790075 -0.36486655 29.31094582 -0.29296875 23.53515625 C-0.28872391 22.85698349 -0.28447906 22.17881073 -0.28010559 21.48008728 C-0.26347941 19.34046598 -0.22586174 17.20183053 -0.1875 15.0625 C-0.17243222 13.60092518 -0.1587475 12.13933542 -0.14648438 10.67773438 C-0.11362977 7.11817603 -0.06196241 3.55918444 0 0 Z " fill="#FCFBFD" transform="translate(118,74)"/>
<path d="M0 0 C3.62598109 2.88157438 5.80014215 5.45913934 7.359375 9.875 C7.95793006 15.55941877 7.83255463 21.16935712 7.671875 26.875 C7.64675825 28.42834949 7.62395103 29.98173813 7.60351562 31.53515625 C7.54879089 35.31608146 7.46271166 39.09510379 7.359375 42.875 C3.399375 42.875 -0.560625 42.875 -4.640625 42.875 C-4.6499707 42.01221436 -4.65931641 41.14942871 -4.66894531 40.26049805 C-4.71298222 37.0563816 -4.77460394 33.85322272 -4.84814453 30.6496582 C-4.87635297 29.26371604 -4.89756833 27.87761304 -4.91162109 26.49145508 C-4.93304921 24.49792596 -4.98179514 22.50474954 -5.03125 20.51171875 C-5.05219727 19.31248779 -5.07314453 18.11325684 -5.09472656 16.87768555 C-5.36332135 13.80475167 -5.36332135 13.80475167 -7.49121094 11.98754883 C-10.44931553 10.45641722 -12.35470385 10.39580317 -15.640625 10.875 C-18.55198331 13.06943136 -19.53233161 14.27502747 -20.18652344 17.89941406 C-20.2074707 19.05151367 -20.22841797 20.20361328 -20.25 21.390625 C-20.28222656 22.64101562 -20.31445312 23.89140625 -20.34765625 25.1796875 C-20.36892578 27.13261719 -20.36892578 27.13261719 -20.390625 29.125 C-20.42027344 30.44242188 -20.44992188 31.75984375 -20.48046875 33.1171875 C-20.55117888 36.36985343 -20.60387286 39.62180193 -20.640625 42.875 C-24.270625 42.875 -27.900625 42.875 -31.640625 42.875 C-31.73989653 38.14280238 -31.81228133 33.41121787 -31.86035156 28.67822266 C-31.88040127 27.07004226 -31.90764864 25.46193417 -31.94238281 23.85400391 C-31.99119764 21.5352998 -32.01365928 19.21756375 -32.03125 16.8984375 C-32.05189514 16.18569672 -32.07254028 15.47295593 -32.09381104 14.73861694 C-32.09608175 9.62594236 -30.8196121 6.82498282 -27.640625 2.875 C-19.27698079 -5.04845241 -9.84705513 -4.6339083 0 0 Z " fill="#FCFCFD" transform="translate(136.640625,56.125)"/>
<path d="M0 0 C3.96 0 7.92 0 12 0 C12.01458252 0.86278564 12.02916504 1.72557129 12.04418945 2.61450195 C12.10527754 5.81849647 12.17943549 9.02184625 12.26245117 12.2253418 C12.29568549 13.61129377 12.32372226 14.99738061 12.34643555 16.38354492 C12.38000617 18.37706843 12.43388 20.37021741 12.48828125 22.36328125 C12.51446533 23.56251221 12.54064941 24.76174316 12.56762695 25.99731445 C12.76728396 28.96503305 12.76728396 28.96503305 14.31323242 30.89916992 C17.10587386 32.72172315 19.76788757 32.23086517 23 32 C23.99 31.67 24.98 31.34 26 31 C26.433125 32.093125 26.86625 33.18625 27.3125 34.3125 C28.50873916 37.13790298 29.70733935 38.92568798 32 41 C32 41.66 32 42.32 32 43 C25.6491829 45.87584171 19.97276845 47.08600615 13 46 C7.83637262 43.90523964 4.06797204 40.66331751 1 36 C-0.18975795 32.43072615 -0.12478155 29.20053028 -0.09765625 25.48828125 C-0.0962413 24.76005661 -0.09482635 24.03183197 -0.09336853 23.28153992 C-0.08777659 20.95848461 -0.07522562 18.63552612 -0.0625 16.3125 C-0.05748396 14.73632952 -0.05292123 13.16015752 -0.04882812 11.58398438 C-0.0378098 7.72261902 -0.02055074 3.86132592 0 0 Z " fill="#FDFCFD" transform="translate(91,74)"/>
<path d="M0 0 C1.98 0 3.96 0 6 0 C8.25374117 5.76323254 10.07763927 11.52746533 11.6875 17.5 C11.91244141 18.32242188 12.13738281 19.14484375 12.36914062 19.9921875 C12.91611425 21.99387823 13.45853969 23.99681088 14 26 C14.2266333 25.2479126 14.4532666 24.4958252 14.68676758 23.72094727 C15.71605997 20.33081549 16.76399288 16.94673576 17.8125 13.5625 C18.16892578 12.37849609 18.52535156 11.19449219 18.89257812 9.97460938 C19.24384766 8.84990234 19.59511719 7.72519531 19.95703125 6.56640625 C20.27647705 5.52427979 20.59592285 4.48215332 20.92504883 3.40844727 C21.27978271 2.61365967 21.6345166 1.81887207 22 1 C22.99 0.67 23.98 0.34 25 0 C25.23710693 0.69150146 25.47421387 1.38300293 25.71850586 2.09545898 C26.78849543 5.21051561 27.86293565 8.32401869 28.9375 11.4375 C29.49727539 13.07041992 29.49727539 13.07041992 30.06835938 14.73632812 C30.60493164 16.28803711 30.60493164 16.28803711 31.15234375 17.87109375 C31.48226318 18.82943115 31.81218262 19.78776855 32.15209961 20.77514648 C32.80334076 22.93965248 32.80334076 22.93965248 34 24 C34.17128418 23.45061768 34.34256836 22.90123535 34.51904297 22.33520508 C35.30231417 19.82699195 36.08862912 17.31974297 36.875 14.8125 C37.14441406 13.94818359 37.41382813 13.08386719 37.69140625 12.19335938 C38.9891717 8.06266689 40.29938308 3.98736879 42 0 C43.98 0 45.96 0 48 0 C47.83564453 0.54712646 47.67128906 1.09425293 47.50195312 1.65795898 C47.14520508 2.84627319 47.14520508 2.84627319 46.78125 4.05859375 C46.50667969 4.97237793 46.23210937 5.88616211 45.94921875 6.82763672 C45.28129683 9.05988399 44.61761812 11.29340312 43.95703125 13.52783203 C43.011783 16.71804487 42.0569139 19.90492443 41.09326172 23.08959961 C40.69330813 24.41965104 40.29789384 25.75107485 39.90673828 27.08374023 C39.33477708 29.02930717 38.74578765 30.96984296 38.15625 32.91015625 C37.81400391 34.05621338 37.47175781 35.20227051 37.11914062 36.38305664 C36.74982422 37.24664795 36.38050781 38.11023926 36 39 C35.01 39.33 34.02 39.66 33 40 C28.545 27.625 28.545 27.625 24 15 C21.58336983 21.04157542 19.25101586 26.95834736 17.25 33.125 C17.02957031 33.7953125 16.80914062 34.465625 16.58203125 35.15625 C16.05183259 36.76989809 15.52547587 38.38480779 15 40 C14.34 40 13.68 40 13 40 C11.30739742 34.94693234 9.61677621 29.89320776 7.92797852 24.83886719 C7.35332625 23.11993555 6.7781353 21.40118389 6.20239258 19.68261719 C5.37439167 17.21075943 4.54833731 14.73825848 3.72265625 12.265625 C3.46533218 11.49881409 3.20800812 10.73200317 2.94288635 9.94195557 C1.84478352 6.6479924 0.81101806 3.37574486 0 0 Z " fill="#F9F7FA" transform="translate(100,137)"/>
<path d="M0 0 C4.05214796 2.02607398 5.22219727 3.21080083 7.85546875 6.71875 C8.55994141 7.65074219 9.26441406 8.58273438 9.99023438 9.54296875 C10.71533203 10.51878906 11.44042969 11.49460938 12.1875 12.5 C12.92419922 13.47582031 13.66089844 14.45164063 14.41992188 15.45703125 C19.8208598 22.64171961 19.8208598 22.64171961 21 25 C21.33 16.75 21.66 8.5 22 0 C23.98 0 25.96 0 28 0 C28 13.2 28 26.4 28 40 C27.01 40 26.02 40 25 40 C23.66894531 38.59814453 23.66894531 38.59814453 22.328125 36.6328125 C21.82796875 35.9109375 21.3278125 35.1890625 20.8125 34.4453125 C20.0390625 33.29675781 20.0390625 33.29675781 19.25 32.125 C18.74984375 31.39796875 18.2496875 30.6709375 17.734375 29.921875 C16.15037639 27.61861172 14.5753289 25.30920164 13 23 C10.69 19.7 8.38 16.4 6 13 C5.67 21.91 5.34 30.82 5 40 C3.35 40 1.7 40 0 40 C0 26.8 0 13.6 0 0 Z " fill="#F5F2F8" transform="translate(68,137)"/>
<path d="M0 0 C1.98 0 3.96 0 6 0 C6.01458252 0.92337158 6.02916504 1.84674316 6.04418945 2.7980957 C6.10526308 6.22577204 6.1794161 9.65264662 6.26245117 13.07983398 C6.29569423 14.56279854 6.32372823 16.04588944 6.34643555 17.52905273 C6.37999468 19.66184293 6.43230638 21.79347612 6.48828125 23.92578125 C6.51446533 25.20880127 6.54064941 26.49182129 6.56762695 27.8137207 C6.73753449 30.95869479 6.73753449 30.95869479 8.3972168 32.91723633 C10.5198845 34.3512091 11.9530992 34.40046901 14.5 34.375 C15.2734375 34.38273437 16.046875 34.39046875 16.84375 34.3984375 C19.63581649 33.88251217 20.32604996 33.29696482 22 31 C22.50858908 27.70728404 22.50858908 27.70728404 22.51171875 23.92578125 C22.52966995 23.2419487 22.54762115 22.55811615 22.56611633 21.8535614 C22.62022075 19.67327 22.6541134 17.49319744 22.6875 15.3125 C22.7206732 13.83265183 22.75516287 12.35283255 22.79101562 10.87304688 C22.87594524 7.24890831 22.94275635 3.62469348 23 0 C24.98 0 26.96 0 29 0 C29.09935088 4.30495015 29.17169268 8.60928183 29.21972656 12.91503906 C29.23976332 14.37772252 29.26700104 15.84032666 29.30175781 17.30273438 C29.35063225 19.4129601 29.37304659 21.52212136 29.390625 23.6328125 C29.41157227 24.90012207 29.43251953 26.16743164 29.45410156 27.47314453 C28.81128637 32.46567583 26.61776569 35.52930392 22.9375 38.875 C17.21441685 41.06681908 11.27816573 40.73226755 5.5 38.875 C2.36577288 36.52432966 1.47570449 34.6222078 0 31 C-0.34057617 27.47314453 -0.34057617 27.47314453 -0.29296875 23.6328125 C-0.28660149 22.61343094 -0.28660149 22.61343094 -0.28010559 21.57345581 C-0.26344266 19.42355076 -0.22581716 17.27461701 -0.1875 15.125 C-0.172437 13.6588678 -0.15875143 12.19272076 -0.14648438 10.7265625 C-0.1135808 7.15073125 -0.06188663 3.57546059 0 0 Z " fill="#F6F3F9" transform="translate(152,137)"/>
<path d="M0 0 C3.77448679 0.70771627 5.31473478 1.82826933 8 4.5625 C8.56762695 7.67871094 8.56762695 7.67871094 8.48828125 11.296875 C8.47216797 12.59238281 8.45605469 13.88789062 8.43945312 15.22265625 C8.39767939 16.58595428 8.3553547 17.94923552 8.3125 19.3125 C8.2874091 20.69136624 8.26459729 22.07027597 8.24414062 23.44921875 C8.18518617 26.82141356 8.10293171 30.19140741 8 33.5625 C13.94 33.0675 13.94 33.0675 20 32.5625 C20.33 24.6425 20.66 16.7225 21 8.5625 C21.33 8.5625 21.66 8.5625 22 8.5625 C22.14532035 13.12466465 22.23408477 17.68623362 22.3125 22.25 C22.35439453 23.54357422 22.39628906 24.83714844 22.43945312 26.16992188 C22.45556641 27.41708984 22.47167969 28.66425781 22.48828125 29.94921875 C22.51446533 31.09608154 22.54064941 32.24294434 22.56762695 33.42456055 C21.8220296 37.546351 20.24700146 39.0033552 17 41.5625 C13.4375 42.125 13.4375 42.125 10 41.5625 C7.80957031 39.94824219 7.80957031 39.94824219 6 37.5625 C5.54589844 34.44628906 5.54589844 34.44628906 5.609375 30.828125 C5.62871094 28.88486328 5.62871094 28.88486328 5.6484375 26.90234375 C5.68185634 25.53905176 5.71571609 24.17577051 5.75 22.8125 C5.77007293 21.43361936 5.78832233 20.05471088 5.8046875 18.67578125 C5.85184552 15.30398256 5.91765462 11.93359313 6 8.5625 C2.04 8.5625 -1.92 8.5625 -6 8.5625 C-5.93072101 12.84975976 -5.8425654 17.13610895 -5.73754883 21.42260742 C-5.70447017 22.87822994 -5.67638603 24.33397547 -5.65356445 25.78979492 C-5.61970079 27.89294436 -5.5673764 29.99498375 -5.51171875 32.09765625 C-5.48553467 33.359729 -5.45935059 34.62180176 -5.43237305 35.92211914 C-4.93735126 40.08997336 -3.79259757 42.79001001 -2 46.5625 C-1.67 47.5525 -1.34 48.5425 -1 49.5625 C-4 48.5625 -4 48.5625 -5.16796875 46.71484375 C-5.50441406 45.98394531 -5.84085938 45.25304687 -6.1875 44.5 C-6.53167969 43.76652344 -6.87585938 43.03304687 -7.23046875 42.27734375 C-7.48441406 41.71144531 -7.73835938 41.14554688 -8 40.5625 C-8.99 41.0575 -8.99 41.0575 -10 41.5625 C-16.20380378 42.13692628 -16.20380378 42.13692628 -19.21582031 39.96386719 C-21.61806979 36.7306261 -21.38188166 34.81825153 -21.171875 30.828125 C-21.11386719 29.53261719 -21.05585937 28.23710938 -20.99609375 26.90234375 C-20.9145115 25.53903556 -20.83247447 24.17575451 -20.75 22.8125 C-20.68169063 21.43368672 -20.61526322 20.05477883 -20.55078125 18.67578125 C-20.38569462 15.30329722 -20.20139277 11.93297907 -20 8.5625 C-19.67 8.5625 -19.34 8.5625 -19 8.5625 C-19 16.8125 -19 25.0625 -19 33.5625 C-15.37 33.5625 -11.74 33.5625 -8 33.5625 C-8.02618408 32.74048096 -8.05236816 31.91846191 -8.0793457 31.0715332 C-8.1834144 27.33955062 -8.24836128 23.6078734 -8.3125 19.875 C-8.35439453 18.58142578 -8.39628906 17.28785156 -8.43945312 15.95507812 C-8.45556641 14.70791016 -8.47167969 13.46074219 -8.48828125 12.17578125 C-8.51446533 11.02891846 -8.54064941 9.88205566 -8.56762695 8.70043945 C-7.67057743 3.74139535 -4.95435098 0.92894081 0 0 Z " fill="#793A95" transform="translate(124,65.4375)"/>
<path d="M0 0 C0.33 0 0.66 0 1 0 C1.01981934 0.76030518 1.03963867 1.52061035 1.06005859 2.30395508 C1.15634132 5.80710352 1.26559566 9.30973775 1.375 12.8125 C1.4059375 14.00810547 1.436875 15.20371094 1.46875 16.43554688 C1.90172187 30.79570117 1.90172187 30.79570117 7 44 C4 43 4 43 2.83203125 41.15234375 C2.49558594 40.42144531 2.15914062 39.69054687 1.8125 38.9375 C1.46832031 38.20402344 1.12414062 37.47054687 0.76953125 36.71484375 C0.51558594 36.14894531 0.26164062 35.58304688 0 35 C-0.99 35.495 -0.99 35.495 -2 36 C-8.20380378 36.57442628 -8.20380378 36.57442628 -11.21582031 34.40136719 C-13.61806979 31.1681261 -13.38188166 29.25575153 -13.171875 25.265625 C-13.11386719 23.97011719 -13.05585937 22.67460938 -12.99609375 21.33984375 C-12.9145115 19.97653556 -12.83247447 18.61325451 -12.75 17.25 C-12.68169063 15.87118672 -12.61526322 14.49227883 -12.55078125 13.11328125 C-12.38569462 9.74079722 -12.20139277 6.37047907 -12 3 C-11.67 3 -11.34 3 -11 3 C-11 11.25 -11 19.5 -11 28 C-7.37 28 -3.74 28 0 28 C0 18.76 0 9.52 0 0 Z " fill="#854C9E" transform="translate(116,71)"/>
<path d="M0 0 C3.375 0.9375 3.375 0.9375 5.375 3.9375 C5.70002803 7.05776907 5.88651479 9.08497535 4.25 11.8125 C1.45053259 13.49218045 -0.42304064 13.39492277 -3.625 12.9375 C-6.4162125 10.95427007 -7.45097224 9.80763879 -8.125 6.4375 C-7.12997193 1.46235967 -5.00784378 -0.08634213 0 0 Z " fill="#BCA1CB" transform="translate(199.625,138.0625)"/>
<path d="M0 0 C2.875 1.6875 2.875 1.6875 5 4 C5 5.65 5 7.3 5 9 C-1.93 8.505 -1.93 8.505 -9 8 C-9 15.92 -9 23.84 -9 32 C-9.33 32 -9.66 32 -10 32 C-10.09893453 27.92503897 -10.17149694 23.85054344 -10.21972656 19.7746582 C-10.23983275 18.38846662 -10.26712245 17.00235975 -10.30175781 15.61645508 C-10.35031225 13.62358094 -10.37083972 11.63008611 -10.390625 9.63671875 C-10.41157227 8.43748779 -10.43251953 7.23825684 -10.45410156 6.00268555 C-10 3 -10 3 -8.15917969 1.11254883 C-5.17966368 -0.42269026 -3.31279523 -0.47325646 0 0 Z " fill="#722D8F" transform="translate(127,66)"/>
<path d="M0 0 C3.375 0.9375 3.375 0.9375 5.375 3.9375 C5.70002803 7.05776907 5.88651479 9.08497535 4.25 11.8125 C1.45053259 13.49218045 -0.42304064 13.39492277 -3.625 12.9375 C-6.4162125 10.95427007 -7.45097224 9.80763879 -8.125 6.4375 C-7.12997193 1.46235967 -5.00784378 -0.08634213 0 0 Z M-5.625 3.9375 C-6.04166667 6.9375 -6.04166667 6.9375 -5.625 9.9375 C-2.85511924 12.25293207 -2.85511924 12.25293207 0 11.625 C2.31001965 11.1633486 2.31001965 11.1633486 3.375 9.9375 C3.62505386 6.97932893 3.62505386 6.97932893 3.375 3.9375 C1.54796773 1.6883092 1.54796773 1.6883092 -1.125 1.6875 C-3.79796773 1.6883092 -3.79796773 1.6883092 -5.625 3.9375 Z " fill="#D8CAE2" transform="translate(199.625,138.0625)"/>
<path d="M0 0 C2.375 -0.125 2.375 -0.125 5 0 C7 2 7 2 7.3125 5 C7.209375 5.99 7.10625 6.98 7 8 C4 10 4 10 1.8125 9.625 C1.214375 9.41875 0.61625 9.2125 0 9 C0.33 8.01 0.66 7.02 1 6 C1.99 6 2.98 6 4 6 C4 4.68 4 3.36 4 2 C2.68 1.34 1.36 0.68 0 0 Z " fill="#7E4299" transform="translate(196,140)"/>
</svg>
