<?xml version="1.0" standalone="no"?>
<!DOCTYPE svg PUBLIC "-//W3C//DTD SVG 20010904//EN"
 "http://www.w3.org/TR/2001/REC-SVG-20010904/DTD/svg10.dtd">
<svg version="1.0" xmlns="http://www.w3.org/2000/svg"
 width="280.000000pt" height="280.000000pt" viewBox="0 0 280.000000 280.000000"
 preserveAspectRatio="xMidYMid meet">

<g transform="translate(0.000000,280.000000) scale(0.100000,-0.100000)"
fill="#000000" stroke="none">
<path d="M310 1400 l0 -1100 1090 0 1090 0 0 1100 0 1100 -1090 0 -1090 0 0
-1100z m2070 -5 l0 -965 -967 2 -968 3 -1 775 c-1 426 0 859 3 963 l6 187 963
0 964 0 0 -965z"/>
<path d="M1800 1978 c-58 -31 -87 -119 -57 -178 17 -34 74 -70 111 -70 109 0
166 144 88 222 -34 35 -101 47 -142 26z"/>
<path d="M865 1918 c-3 -13 -4 -257 -3 -543 l3 -520 103 -3 102 -3 0 226 c0
203 2 225 17 225 32 0 89 -79 191 -263 l104 -187 124 0 c68 0 124 2 124 5 0
15 -213 368 -251 416 -33 42 -35 49 -14 49 26 0 88 36 122 72 77 80 106 238
64 349 -28 75 -80 132 -149 166 -57 28 -57 28 -294 31 l-237 4 -6 -24z m422
-183 c35 -20 63 -76 63 -123 -1 -48 -34 -107 -73 -125 -36 -18 -191 -25 -200
-9 -3 4 -2 69 1 146 l5 138 86 -4 c61 -3 95 -9 118 -23z"/>
<path d="M1850 1635 l-95 -32 -3 -376 -2 -377 105 0 105 0 0 404 c0 223 -3
407 -7 409 -5 2 -51 -10 -103 -28z"/>
</g>
</svg>
