<?xml version="1.0" standalone="no"?>
<!DOCTYPE svg PUBLIC "-//W3C//DTD SVG 20010904//EN"
 "http://www.w3.org/TR/2001/REC-SVG-20010904/DTD/svg10.dtd">
<svg version="1.0" xmlns="http://www.w3.org/2000/svg"
 width="388.000000pt" height="273.000000pt" viewBox="0 0 388.000000 273.000000"
 preserveAspectRatio="xMidYMid meet">

<g transform="translate(0.000000,273.000000) scale(0.100000,-0.100000)"
fill="#000000" stroke="none">
<path d="M641 2714 c-165 -44 -329 -207 -416 -412 -71 -169 -105 -390 -85
-555 34 -283 133 -492 320 -677 l87 -86 -49 -54 c-129 -146 -233 -325 -292
-500 -39 -116 -66 -254 -66 -336 0 -45 4 -56 26 -73 26 -20 37 -21 400 -21
256 0 381 4 398 11 28 13 38 37 56 124 31 154 115 304 227 404 98 89 276 162
430 178 l53 6 0 -346 0 -347 24 -15 c20 -14 74 -15 409 -13 300 2 389 6 399
16 10 10 14 197 18 935 l5 922 559 3 c503 2 561 4 578 19 17 15 18 42 18 405
0 375 -1 389 -20 408 -20 20 -33 20 -1522 19 -1281 0 -1511 -2 -1557 -15z
m1084 -1079 l0 -240 -124 -3 c-382 -9 -574 126 -598 420 l-6 68 364 -2 364 -3
0 -240z"/>
<path d="M2907 1592 c-16 -17 -17 -86 -17 -783 0 -645 2 -768 14 -785 14 -18
30 -19 411 -19 381 0 397 1 411 19 12 17 14 140 14 786 0 730 -1 768 -18 783
-17 15 -60 17 -409 17 -365 0 -391 -1 -406 -18z"/>
</g>
</svg>
