<?xml version="1.0" encoding="UTF-8"?>
<svg id="logosandtypes_com" data-name="logosandtypes com" xmlns="http://www.w3.org/2000/svg" viewBox="0 0 150 150">
  <defs>
    <style>
      .cls-1 {
        fill: #b79962;
      }

      .cls-2 {
        fill: none;
      }
    </style>
  </defs>
  <g id="Layer_3" data-name="Layer 3">
    <g id="Layer_3-2" data-name="Layer 3">
      <g id="Layer_2" data-name="Layer 2">
        <path id="Layer_3-3" data-name="Layer 3" class="cls-2" d="M0,0H150V150H0V0Z"/>
      </g>
    </g>
  </g>
  <path class="cls-1" d="M81.34,36.1c0-12.05,5.18-18.03,8.09-20.78l-.32-.57H29.02v6.63h3.07v58.46c0,7.92,.24,18.76,4.69,28.87,4.37,9.95,10.67,17.38,21.51,17.38s22.4-11.81,8.65-30.24c-10.27-13.67-28.14-26.04-28.14-54.5,0-11.81,4.29-17.87,6.15-19.89h12.21c-1.37,1.86-5.18,8.01-5.18,18.52,0,34.28,35.42,45.36,35.42,70.51,0,11.97-9.54,24.74-20.22,26.36l-.16,1.05c2.83,1.05,5.98,1.86,8.98,2.43,4.2-.16,39.38-9.86,39.38-40.43-.08-29.59-34.04-37.52-34.04-63.8Zm-42.05,35.26c.08,0,.32-.16,.4-.16,5.42,12.86,19.16,24.26,23.69,35.01,3.23,7.68,.32,13.1-5.01,13.1-12.29,0-19-18.03-19-38.49-.08-2.1-.08-9.46-.08-9.46Zm46.66,59.51c-.08-.16-.16-.24-.24-.32,4.69-3.64,10.19-10.51,10.19-20.22,0-28.79-36.06-39.62-36.06-71.4,0-9.62,3.88-15.61,5.34-17.47h11.64c-1.21,2.1-3.48,7.52-3.48,15.44,0,29.03,33.8,37.6,33.8,64.12-.08,15.53-13.18,27.01-21.19,29.84Z"/>
  <path class="cls-1" d="M115.06,14.83c-5.18,0-9.46,1.05-13.26,4.04-.89,.73-7.52,6.06-7.52,14.88,0,10.67,7.03,18.68,14.8,26.44,5.98,5.98,8.89,9.78,10.11,11.81l.73-.24V21.46h3.07c0-.16,0-6.87,0-6.63h-7.92Zm-2.34,39.62c-.08,0-.24,.08-.32,.16-3.23-4.29-11.24-11.72-11.24-20.94,0-5.34,3.64-10.19,7.44-11.48,1.13-.4,2.26-.4,3.4-.4h.73s0,32.67,0,32.67Z"/>
</svg>